# xmcd
#
# Track frame offsets:
#	150
#	12570
#	22346
#	37556
#	46495
#	59355
#	69831
#	75353
#	90969
#	99513
#	111637
#	118635
#	137654
#
# Disc length: 1949 seconds
#
# Revision: 1
# Processed by: cddbd v1.4PL0 Copyright (c) Steve Scherf et al.
# Submitted via: audiograbber 1.81.02
#
DISCID=a1079b0d
DTITLE=James Talley - Got No Bread, No Milk, No Money But We Sure Got A Lot of 
DTITLE=Love
DYEAR=1974
DGENRE=Classic Rock
TTITLE0=W. Lee O' Daniel And The Light Crust Dough Boys
TTITLE1=Got No Bread, No Milk, No Money But We Sure Got A Lot of Love
TTITLE2=Red River Memory
TTITLE3=Give Him Another Bottle
TTITLE4=Calico Gypsy
TTITLE5=To Get Back Home
TTITLE6=Big Taters In The Sandy Land
TTITLE7=No Opener Needed
TTITLE8=Blue Eyed Ruth And My Sunday Suit
TTITLE9=Mehan, Oklahoma
TTITLE10=Daddy's Song
TTITLE11=Take Me To The Country
TTITLE12=Red River Reprise
EXTD=
EXTT0=
EXTT1=
EXTT2=
EXTT3=
EXTT4=
EXTT5=
EXTT6=
EXTT7=
EXTT8=
EXTT9=
EXTT10=
EXTT11=
EXTT12=
PLAYORDER=
